<?xml version="1.0" encoding="utf-8" standalone="yes"?>
<!DOCTYPE svg PUBLIC "-//W3C//DTD SVG 1.1//EN" "http://www.w3.org/Graphics/SVG/1.1/DTD/svg11.dtd">
<svg style="fill:none;stroke:none;fill-rule:evenodd;clip-rule:evenodd;stroke-linecap:round;stroke-linejoin:round;stroke-miterlimit:1.5;" version="1.1" xmlns="http://www.w3.org/2000/svg" xmlns:xlink="http://www.w3.org/1999/xlink" width="780" height="696" viewBox="0 0 780 696"><style class="text-font-style fontImports" data-font-family="Shantell Sans">@import url(https://fonts.googleapis.com/css2?family=Shantell+Sans:wght@300..800&amp;amp;display=block);</style><g id="items" style="isolation: isolate"><g id="blend" style="mix-blend-mode: normal"><g id="g-root-cp_1_g-1_93daq71uno9ok-fill" data-item-order="-439190" transform="translate(266, 122)"><g id="cp_1_g-1_93daq71uno9ok-fill-merged" stroke="none" fill="#2c2c2c" fill-opacity="1"><g><path d="M10 125 V58 H76C76 84.51 97.49 106 124 106C150.51 106 172 84.51 172 58 H238 V125L124 239L10 125"></path></g></g><g id="cp_1_g-1_93daq71uno9ok-fill-merged" stroke="none" fill="#2c2c2c" fill-opacity="1"><g><path d="M172 58C172 84.51 150.51 106 124 106C97.49 106 76 84.51 76 58C76 31.49 97.49 10 124 10C150.51 10 172 31.49 172 58"></path></g></g></g><g id="g-root-cp_2_g-2_1hi6t1r1uno9hh-fill" data-item-order="-439182" transform="translate(397, 254)"><g id="cp_2_g-2_1hi6t1r1uno9hh-fill-merged" stroke="none" fill="#2c2c2c" fill-opacity="1"><g><path d="M124 10 H191 V76C164.49 76 143 97.49 143 124C143 150.51 164.49 172 191 172 V238 H124L10 124L124 10"></path></g></g><g id="cp_2_g-2_1hi6t1r1uno9hh-fill-merged" stroke="none" fill="#2c2c2c" fill-opacity="1"><g><path d="M191 172C164.49 172 143 150.51 143 124C143 97.49 164.49 76 191 76C217.51 76 239 97.49 239 124C239 150.51 217.51 172 191 172"></path></g></g></g><g id="g-root-cp_3_g-3_146qaof1unob2e-fill" data-item-order="-439174" transform="translate(266, 385)"><g id="cp_3_g-3_146qaof1unob2e-fill-merged" stroke="none" fill="#2c2c2c" fill-opacity="1"><g><path d="M10 124 V191 H76C76 164.49 97.49 143 124 143C150.51 143 172 164.49 172 191 H238 V124L124 10L10 124"></path></g></g><g id="cp_3_g-3_146qaof1unob2e-fill-merged" stroke="none" fill="#2c2c2c" fill-opacity="1"><g><path d="M172 191C172 217.51 150.51 239 124 239C97.49 239 76 217.51 76 191C76 164.49 97.49 143 124 143C150.51 143 172 164.49 172 191"></path></g></g></g><g id="g-root-cp_4_g-4_vbprin1uno8pb-fill" data-item-order="-439166" transform="translate(134, 254)"><g id="cp_4_g-4_vbprin1uno8pb-fill-merged" stroke="none" fill="#2c2c2c" fill-opacity="1"><g><path d="M125 10 H58 V76C84.51 76 106 97.49 106 124C106 150.51 84.51 172 58 172 V238 H125L239 124L125 10"></path></g></g><g id="cp_4_g-4_vbprin1uno8pb-fill-merged" stroke="none" fill="#2c2c2c" fill-opacity="1"><g><path d="M58 172C31.49 172 10 150.51 10 124C10 97.49 31.49 76 58 76C84.51 76 106 97.49 106 124C106 150.51 84.51 172 58 172"></path></g></g></g><g id="g-root-tx_anveshak_qvw9e71uno9hk-fill" data-item-order="0" transform="translate(152, 38)"><g id="tx_anveshak_qvw9e71uno9hk-fill-merged" stroke="none" fill="#f4f4f4" fill-opacity="1"><g><text style="font: bold 25px &quot;Shantell Sans&quot;, cursive; white-space: pre;" font-weight="bold" font-size="25px" font-family="'Shantell Sans', cursive"><tspan x="15.46" y="44.2" dominant-baseline="ideographic">Anveshak: Cybersecurity Platform</tspan></text></g></g></g><g id="g-root-tx_risingcy_hs530v1unpnv3-fill" data-item-order="0" transform="translate(68, 122)"><g id="tx_risingcy_hs530v1unpnv3-fill-merged" stroke="none" fill="#f4f4f4" fill-opacity="1"><g><text style="font: bold 20px &quot;Shantell Sans&quot;, cursive; white-space: pre;" font-weight="bold" font-size="20px" font-family="'Shantell Sans', cursive"><tspan x="12.23" y="35.6" dominant-baseline="ideographic">Rising cyber </tspan><tspan x="61.45" y="59.6" dominant-baseline="ideographic">threats</tspan></text></g></g></g><g id="g-root-tx_securere_958pzj1uno8ox-fill" data-item-order="0" transform="translate(530, 122)"><g id="tx_securere_958pzj1uno8ox-fill-merged" stroke="none" fill="#f4f4f4" fill-opacity="1"><g><text style="font: bold 20px &quot;Shantell Sans&quot;, cursive; white-space: pre;" font-weight="bold" font-size="20px" font-family="'Shantell Sans', cursive"><tspan x="12" y="35.6" dominant-baseline="ideographic">Secure real-time </tspan><tspan x="12" y="59.6" dominant-baseline="ideographic">monitoring</tspan></text></g></g></g><g id="g-root-ic_lock_1ums3gv1unpnnl-fill" data-item-order="0" transform="translate(356, 146)"></g><g id="g-root-tx_malwarea_8wi2rz1unppfk-fill" data-item-order="0" transform="translate(92, 182)"><g id="tx_malwarea_8wi2rz1unppfk-fill-merged" stroke="none" fill="#f4f4f4" fill-opacity="1"><g><text style="font: 15px &quot;Shantell Sans&quot;, cursive; white-space: pre;" font-size="15px" font-family="'Shantell Sans', cursive"><tspan x="18.35" y="28.4" dominant-baseline="ideographic">Malware and </tspan><tspan x="25.9" y="46.4" dominant-baseline="ideographic">ransomware</tspan></text></g></g></g><g id="g-root-tx_blockcha_9lpqn1uno9hm-fill" data-item-order="0" transform="translate(530, 182)"><g id="tx_blockcha_9lpqn1uno9hm-fill-merged" stroke="none" fill="#f4f4f4" fill-opacity="1"><g><text style="font: 15px &quot;Shantell Sans&quot;, cursive; white-space: pre;" font-size="15px" font-family="'Shantell Sans', cursive"><tspan x="12" y="28.4" dominant-baseline="ideographic">Blockchain-backed </tspan><tspan x="12" y="46.4" dominant-baseline="ideographic">tamper-proof logs</tspan></text></g></g></g><g id="g-root-ic_warn_1hd76of1un7fnv-fill" data-item-order="0" transform="translate(158, 344)"></g><g id="g-root-ic_cog_4kfibz1unh8n4-fill" data-item-order="0" transform="translate(554, 344)"></g><g id="g-root-tx_aipowere_18efmof1unpnv1-fill" data-item-order="0" transform="translate(50, 518)"><g id="tx_aipowere_18efmof1unpnv1-fill-merged" stroke="none" fill="#f4f4f4" fill-opacity="1"><g><text style="font: bold 20px &quot;Shantell Sans&quot;, cursive; white-space: pre;" font-weight="bold" font-size="20px" font-family="'Shantell Sans', cursive"><tspan x="62.88" y="35.6" dominant-baseline="ideographic">AI-powered </tspan><tspan x="14.09" y="59.6" dominant-baseline="ideographic">threat detection</tspan></text></g></g></g><g id="g-root-tx_dependen_1lz99cf1unoavf-fill" data-item-order="0" transform="translate(542, 518)"><g id="tx_dependen_1lz99cf1unoavf-fill-merged" stroke="none" fill="#f4f4f4" fill-opacity="1"><g><text style="font: bold 20px &quot;Shantell Sans&quot;, cursive; white-space: pre;" font-weight="bold" font-size="20px" font-family="'Shantell Sans', cursive"><tspan x="12" y="35.6" dominant-baseline="ideographic">Dependent SIH </tspan><tspan x="12" y="59.6" dominant-baseline="ideographic">development</tspan></text></g></g></g><g id="g-root-ic_sear_qp14lr1unlfd0-fill" data-item-order="0" transform="translate(356, 542)"></g><g id="g-root-tx_cloudnat_v2z4b31unppfy-fill" data-item-order="0" transform="translate(38, 578)"><g id="tx_cloudnat_v2z4b31unppfy-fill-merged" stroke="none" fill="#f4f4f4" fill-opacity="1"><g><text style="font: 15px &quot;Shantell Sans&quot;, cursive; white-space: pre;" font-size="15px" font-family="'Shantell Sans', cursive"><tspan x="18.73" y="31.4" dominant-baseline="ideographic">Cloud-native deployment</tspan></text></g></g></g><g id="g-root-tx_limitedr_1ha2mxb1unpn2c-fill" data-item-order="0" transform="translate(542, 578)"><g id="tx_limitedr_1ha2mxb1unpn2c-fill-merged" stroke="none" fill="#f4f4f4" fill-opacity="1"><g><text style="font: 15px &quot;Shantell Sans&quot;, cursive; white-space: pre;" font-size="15px" font-family="'Shantell Sans', cursive"><tspan x="12" y="28.4" dominant-baseline="ideographic">Limited real-world </tspan><tspan x="12" y="46.4" dominant-baseline="ideographic">testing</tspan></text></g></g></g><g id="g-root-cp_1_g-1_93daq71uno9ok-stroke" data-item-order="-439190" transform="translate(266, 122)"><g id="cp_1_g-1_93daq71uno9ok-stroke" fill="none" stroke-linecap="round" stroke-linejoin="round" stroke-miterlimit="4" stroke="#f4f4f4" stroke-width="4" stroke-opacity="1"><g><path d="M 10 125L 10 58L 76 58C 76 84.5097 97.4903 106 124 106C 150.5097 106 172 84.5097 172 58L 238 58L 238 125L 124 239L 10 125ZM 10 125C 9.9 102.7 10.1 80.3 10 58C 32 57.7 54 59 76 58C 77.1 70.3 80.9 81.3 88.3 90.1C 96.7 100.1 109.9 107.8 124 106C 136.5 104.4 147.2 100.2 156.5 93.3C 166.9 85.6 172.4 72 172 58C 182.8 58 193.8 56.5 204.5 58C 215.6 59.5 226.9 57 238 58C 236.8 80.3 236.9 102.7 238 125C 220.6 143.5 203.3 162.2 184.2 178.8C 162.8 197.4 145.4 220.4 124 239C 110.4 226.1 96.2 213.7 84.2 199.2C 74.1 186.9 62.3 176 50.4 165.4C 36.2 152.7 24.6 137.3 10 125M 10 125C 10 117.4 8.4 109.6 10 102.1C 11.4 95.7 10.2 88.9 10 82.3C 9.7 74.2 8.1 65.8 10 58C 16.7 57.1 23.5 57.7 30.2 58C 37.5 58.3 45.4 60.6 52.2 58C 59.6 55.1 68.1 57.4 76 58C 79.2 66.4 79.3 74.9 82.7 82.5C 85.8 89.4 93.3 92.8 98.2 98.5C 104 105.2 114.9 103.4 124 106C 133.1 108.6 144 105.1 149.8 98.5C 155 92.6 161.1 87.9 165.8 81.5C 170.6 75.1 174 66.3 172 58C 182.1 60.4 192.9 56.5 203.1 58C 214.6 59.7 226.5 56.5 238 58C 235.8 63.7 237.1 70.2 238 76.2C 238.7 81.3 238.2 86.6 238 91.7C 237.8 97.6 239.7 103.7 238 109.3C 236.5 114.3 237.5 119.8 238 125C 230.5 131.7 225.5 141.6 216.6 146.4C 206.6 151.8 201 163.2 192.3 170.7C 183.5 178.3 176.6 188 167.6 195.4C 159.4 202.1 154.3 212.9 145 218C 136.3 222.8 132.1 233.3 124 239C 119 231.1 110.1 226.4 104.2 219.2C 98.9 212.7 91.8 207.9 86.5 201.5C 81 194.8 74.4 189 68 183C 61.2 176.7 53.4 171.1 48.3 163.3C 43.2 155.6 34.9 150.6 28.7 143.7C 22.8 137.1 17.1 130.2 10 125"></path></g></g><g id="cp_1_g-1_93daq71uno9ok-stroke" fill="none" stroke-linecap="round" stroke-linejoin="round" stroke-miterlimit="4" stroke="#f4f4f4" stroke-width="4" stroke-opacity="1"><g><path d="M 172 58C 172 84.5097 150.5097 106 124 106C 97.4903 106 76 84.5097 76 58C 76 31.4903 97.4903 10 124 10C 150.5097 10 172 31.4903 172 58ZM 133.81076 153.9588C 132.77636 153.9588 131.95456 153.1496 131.59496 152.1797C 131.22656 151.1859 130.61896 150.362 129.77206 149.7081C 128.47936 148.6806 126.63166 148.1669 124.22866 148.1669C 122.63776 148.1669 121.31206 148.3741 120.25146 148.7883C 119.19086 149.2026 118.39536 149.7744 117.86506 150.5036C 117.33476 151.2161 117.06136 152.0365 117.04476 152.9645C 117.01156 153.7268 117.16076 154.398 117.49216 154.978C 117.84016 155.558 118.33736 156.0717 118.98366 156.5192C 119.64656 156.95 120.44196 157.3312 121.37006 157.6626C 122.29806 157.9941 123.34206 158.2841 124.50216 158.5327L 128.87716 159.527C 131.39606 160.0739 133.61666 160.803 135.53906 161.7145C 137.47796 162.6259 139.10206 163.7114 140.41126 164.9709C 141.73696 166.2304 142.73956 167.6804 143.41906 169.321C 144.09846 170.9616 144.44646 172.8011 144.46306 174.8395C 144.44646 178.0545 143.63446 180.8137 142.02696 183.1172C 140.41946 185.4207 138.10776 187.1856 135.09166 188.4119C 132.09206 189.6383 128.47116 190.2514 124.22866 190.2514C 119.96966 190.2514 116.25756 189.6134 113.09236 188.3374C 109.92706 187.0613 107.46616 185.1224 105.70956 182.5206C 104.25986 180.3735 103.39146 177.7581 103.10426 174.6744C 103.00096 173.5648 103.91076 172.652 105.02516 172.652L 112.90026 172.652C 113.95776 172.652 114.80056 173.4867 115.07026 174.5093C 115.29316 175.3543 115.63646 176.1024 116.10016 176.7536C 116.87906 177.8473 117.94796 178.6759 119.30686 179.2393C 120.68226 179.8028 122.27316 180.0845 124.07956 180.0845C 125.73676 180.0845 127.14536 179.8608 128.30536 179.4133C 129.48196 178.9659 130.38516 178.3445 131.01496 177.549C 131.64466 176.7536 131.96776 175.8421 131.98436 174.8146C 131.96776 173.8535 131.66946 173.0331 131.08946 172.3537C 130.50946 171.6577 129.61456 171.0611 128.40486 170.5639C 127.21166 170.0502 125.68706 169.5779 123.83096 169.147L 118.51136 167.9041C 114.10326 166.8932 110.63136 165.2609 108.09586 163.0071C 105.56036 160.7367 104.30086 157.6709 104.31746 153.8097C 104.30086 150.661 105.14606 147.9018 106.85296 145.532C 108.55986 143.1622 110.92136 141.3144 113.93746 139.9886C 116.95356 138.6629 120.39226 138 124.25356 138C 128.19766 138 131.61976 138.6712 134.51986 140.0135C 137.43656 141.3393 139.69866 143.2036 141.30606 145.6065C 142.56316 147.4857 143.33886 149.5979 143.63316 151.9433C 143.77166 153.0474 142.85876 153.9588 141.74596 153.9588L 133.81076 153.9588ZM 172 58C 172.1 84.5 150.5 105.9 124 106C 97.5 106.1 77.1 84.5 76 58C 75.5 45.7 80.9 34.6 88.3 25.9C 96.8 15.9 109.8 9.6 124 10C 136.6 10.3 147.3 15.6 156.5 22.7C 166.8 30.6 170.2 44.2 172 58M 133.8 154C 132.8 154.2 131.8 153.2 131.6 152.2C 131.4 151.1 130.4 150.6 129.8 149.7C 128.8 148.4 126.6 148.2 124.2 148.2C 122.6 148.2 121.3 148.5 120.3 148.8C 119.1 149.1 118.4 149.8 117.9 150.5C 117.4 151.2 117.1 152 117 153C 117.2 153.7 117.3 154.3 117.5 155C 117.7 155.6 118.5 155.9 119 156.5C 119.7 156.8 120.6 157 121.4 157.7C 122.1 158.3 123.3 158.7 124.5 158.5C 126 158.4 127.4 159.6 128.9 159.5C 131.4 159.4 133.7 160.6 135.5 161.7C 137.4 162.8 139.4 163.5 140.4 165C 141.4 166.5 142.3 167.9 143.4 169.3C 144.5 170.7 144 172.9 144.5 174.8C 144.5 178.1 144.3 181.5 142 183.1C 139.8 184.8 137.5 186.3 135.1 188.4C 132.7 190.6 128.5 190 124.2 190.3C 120 190.5 116.3 189.6 113.1 188.3C 109.9 187.1 107.7 184.9 105.7 182.5C 104.1 180.5 103.2 177.8 103.1 174.7C 103.1 173.6 104 173 105 172.7C 107.5 171.9 110.3 172.7 112.9 172.7C 114 172.6 114.6 173.6 115.1 174.5C 115.5 175.3 115.8 176 116.1 176.8C 116.6 178 118.2 178.3 119.3 179.2C 120.4 180.2 122.3 180.5 124.1 180.1C 125.7 179.7 127.1 179.7 128.3 179.4C 129.5 179.1 130.7 178.5 131 177.5C 131.4 176.6 132.2 175.8 132 174.8C 132.3 173.9 131.7 173 131.1 172.4C 130.5 171.7 129.5 171.3 128.4 170.6C 127.1 170.3 125.7 169.5 123.8 169.1C 122 168.8 120.1 168.7 118.5 167.9C 114.5 165.9 110.2 165.7 108.1 163C 106 160.3 105.3 157.5 104.3 153.8C 104.1 150.7 105.3 148 106.9 145.5C 108.4 143 111.3 141.9 113.9 140C 116.6 138.1 120.4 137.6 124.3 138C 128.2 138.4 131.4 139.4 134.5 140C 137.3 141.7 140.7 142.8 141.3 145.6C 141.8 147.8 143.4 149.6 143.6 151.9C 143.7 153.1 142.8 154.3 141.7 154C 139.2 153.2 136.4 154.1 133.8 154M 172 58C 172 67 170.9 76.6 165.2 82.7C 160.1 88.1 156 94.1 150 98.3C 142.7 103.4 133.4 107.9 124 106C 118 104.8 112 105.1 106.7 102.8C 101.1 100.4 96.3 96.6 91.3 93.2C 85.8 89.4 84.6 81.8 79.9 77C 75.5 72.4 75.5 64.7 76 58C 76.7 49.9 77.3 41.8 81.6 35.5C 86.6 28.1 94.2 23.5 99.8 16.5C 105 10.1 115.6 7.4 124 10C 132.4 12.6 142.4 10.6 148.1 16.5C 154.4 22.9 160.2 29.1 166.5 35.6C 171.7 41.1 173 50 172 58M 133.8 154C 132.8 153.8 132.2 153 131.6 152.2C 131 151.3 130.4 150.5 129.8 149.7C 128.7 148.4 126.6 148.5 124.2 148.2C 122.7 148 121.2 148.2 120.3 148.8C 119.3 149.3 118.6 150 117.9 150.5C 117.1 151 117.1 152 117 153C 117.1 153.7 117.3 154.3 117.5 155C 117.6 155.6 118.5 155.9 119 156.5C 119.6 157 120.5 157.3 121.4 157.7C 122.3 158 123.4 158.1 124.5 158.5C 125.9 159 127.6 158.8 128.9 159.5C 131.1 160.8 133.8 160.5 135.5 161.7C 137.3 162.9 139.2 163.6 140.4 165C 141.6 166.4 143.4 167.6 143.4 169.3C 143.4 171.1 144.6 172.8 144.5 174.8C 143.8 178 143.6 180.8 142 183.1C 140.5 185.5 138.2 187.4 135.1 188.4C 132 189.5 128.4 189.6 124.2 190.3C 120 190.9 116.5 188.9 113.1 188.3C 109.7 187.8 107.5 185.1 105.7 182.5C 104.2 180.4 103 177.8 103.1 174.7C 103.1 173.6 103.9 172.4 105 172.7C 107.6 173.3 110.3 172.1 112.9 172.7C 113.9 172.9 115.1 173.4 115.1 174.5C 115 175.4 115.9 176 116.1 176.8C 116.5 178 117.8 179.1 119.3 179.2C 120.8 179.4 122.3 179.7 124.1 180.1C 125.7 180.4 127.3 180.2 128.3 179.4C 129.3 178.7 130.4 178.4 131 177.5C 131.6 176.7 132 175.8 132 174.8C 132.2 173.9 131.7 173.1 131.1 172.4C 130.5 171.6 129.4 171.4 128.4 170.6C 127.3 169.9 125.7 169 123.8 169.1C 122 169.3 120 168.9 118.5 167.9C 114.8 165.4 110.7 165.2 108.1 163C 105.5 160.8 103.9 157.6 104.3 153.8C 105.4 150.9 105.8 148.2 106.9 145.5C 108 142.8 110.7 140.6 113.9 140C 117.2 139.4 120.5 137.2 124.3 138C 128.1 138.9 131.4 139.5 134.5 140C 136.8 142.3 139 143.9 141.3 145.6C 143.1 147 143.2 149.6 143.6 151.9C 143.8 153 142.8 154.2 141.7 154C 139.2 153.4 136.3 153.1 133.8 154"></path></g></g></g><g id="g-root-cp_2_g-2_1hi6t1r1uno9hh-stroke" data-item-order="-439182" transform="translate(397, 254)"><g id="cp_2_g-2_1hi6t1r1uno9hh-stroke" fill="none" stroke-linecap="round" stroke-linejoin="round" stroke-miterlimit="4" stroke="#f4f4f4" stroke-width="4" stroke-opacity="1"><g><path d="M 124 10L 191 10L 191 76C 164.4903 76 143 97.4903 143 124C 143 150.5097 164.4903 172 191 172L 191 238L 124 238L 10 124L 124 10ZM 124 10C 146.3 10 168.7 8.2 191 10C 191.3 32 190 54 191 76C 177.8 76.4 164.6 80.3 157.1 90C 149.6 99.8 142.4 110.7 143 124C 144.2 150.5 164.5 173.5 191 172C 189.3 193.9 192.9 216.1 191 238C 168.7 237 146.3 236.7 124 238C 110.6 224.8 98.1 210.6 84.1 198.1C 72.1 187.4 60.6 176.1 50 164C 37.6 149.8 23.3 137.4 10 124C 21.2 110.4 34.7 99 47.3 86.7C 59.2 75 71.6 63.8 82.7 51.3C 95.7 36.8 109.7 23.2 124 10M 124 10C 129.7 7.9 136.1 9.7 142.1 10C 147.9 10.3 154.1 8.2 159.7 10C 164.2 11.5 169.2 10.4 173.9 10C 179.6 9.5 185.6 11.8 191 10C 188.6 21.1 188.9 32.9 191 44.1C 193 54.5 192.3 65.5 191 76C 185.1 77 178.7 76.1 173.9 79.1C 168.1 82.8 161.7 85.4 157 90.2C 153.1 94.1 150 98.8 147.5 103.8C 144.4 109.8 143.1 116.8 143 124C 142.9 130.5 143.3 137.2 146.6 142.3C 150.1 147.6 152.3 153.8 157 157.9C 161.7 162 167 165.5 172.6 168.4C 178.1 171.2 184.5 172.7 191 172C 192.3 179.3 191.2 186.8 191 194.2C 190.8 201.5 190.9 208.8 191 216.1C 191.1 223.4 189 231 191 238C 186.6 238 182 239.5 177.9 238C 173.7 236.5 168.9 239.3 164.7 238C 160.8 236.8 156.4 236.8 152.5 238C 148.2 239.3 143.4 237.9 138.9 238C 134 238.1 129 238 124 238C 120.3 234.6 117.6 229.9 113.2 227.2C 108.9 224.6 106.9 219.1 102.6 216.6C 98.4 214.2 96 209.4 92.3 206.3C 88.6 203.2 83.9 200.5 82.1 196.1C 80.2 191.8 75.3 189.6 72.2 186.2C 69.1 182.8 65.3 180.1 62.5 176.5C 59.7 172.9 55.5 170.6 52.9 166.9C 50.2 163 46 160.4 42.8 156.8C 39.1 152.7 34.9 149.1 31.1 145.1C 27.8 141.6 25 137.6 21 135C 16.7 132.2 12.1 128.8 10 124C 13.7 121.4 17.8 118.6 19.5 114.5C 21.5 109.7 27.2 107.4 30.5 103.5C 33.6 99.8 36.9 96 40.8 93.2C 44.5 90.6 47.1 86.7 50.4 83.6C 54.2 80 58.2 76.6 61.5 72.5C 64.5 68.7 68.3 65.6 71.9 62.1C 75.5 58.6 80.3 55.8 82.7 51.3C 84.9 47.1 88.7 43.9 92.7 41.3C 97.1 38.4 100 33.7 103.9 30.1C 107.6 26.7 110.1 21.9 114.5 19.5C 118.5 17.3 120.7 13 124 10"></path></g></g><g id="cp_2_g-2_1hi6t1r1uno9hh-stroke" fill="none" stroke-linecap="round" stroke-linejoin="round" stroke-miterlimit="4" stroke="#f4f4f4" stroke-width="4" stroke-opacity="1"><g><path d="M 191 172C 164.4903 172 143 150.5097 143 124C 143 97.4903 164.4903 76 191 76C 217.5097 76 239 97.4903 239 124C 239 150.5097 217.5097 172 191 172ZM 69.31625 153.9091C 68.42695 153.9091 67.64445 153.3219 67.39595 152.4679L 53.74465 105.5588C 53.37225 104.2791 54.33215 103 55.66505 103L 65.00545 103C 65.93715 103 66.74545 103.6433 66.95445 104.5512L 74.27845 136.3594L 74.70095 136.3594L 83.08365 104.4912C 83.31475 103.6125 84.10915 103 85.01785 103L 93.01965 103C 93.92875 103 94.72335 103.613 94.95415 104.4923L 103.33735 136.4339L 103.75995 136.4339L 111.10845 104.5508C 111.31765 103.6431 112.12585 103 113.05735 103L 122.37465 103C 123.70705 103 124.66695 104.2784 124.29515 105.558L 110.66685 152.4671C 110.41865 153.3214 109.63585 153.9091 108.74625 153.9091L 99.88285 153.9091C 98.99765 153.9091 98.21775 153.3272 97.96565 152.4787L 89.21805 123.0355L 88.82035 123.0355L 80.07275 152.4787C 79.82065 153.3272 79.04075 153.9091 78.15555 153.9091L 69.31625 153.9091ZM 191 172C 164.5 172 141.2 150.4 143 124C 144.8 97.5 164.5 77 191 76C 204.2 75.5 216 81.6 224.9 90C 233.8 98.4 237.4 110.8 239 124C 242.2 150.3 217.5 171.6 191 172M 69.3 153.9C 68.4 154 67.7 153.3 67.4 152.5C 62.2 137 56.5 121.6 53.7 105.6C 53.5 104.2 54.4 102.5 55.7 103C 58.6 104.2 62.1 104.2 65 103C 65.9 102.6 67.1 103.6 67 104.6C 65.5 115.3 70.8 126.1 74.3 136.4C 74.4 136.4 74.6 136.4 74.7 136.4C 77.7 125.8 80.2 115.1 83.1 104.5C 83.3 103.6 84.1 103.1 85 103C 87.7 102.6 90.4 103.6 93 103C 93.9 102.8 94.9 103.6 95 104.5C 95.2 115.5 100.2 125.9 103.3 136.4C 103.5 136.5 103.6 136.5 103.8 136.4C 105.4 125.7 108.8 115.2 111.1 104.6C 111.3 103.6 112.1 103 113.1 103C 116.2 103.1 119.3 103.4 122.4 103C 123.7 102.8 124.8 104.3 124.3 105.6C 117.9 120.5 116.2 137.2 110.7 152.5C 110.4 153.3 109.6 153.6 108.7 153.9C 105.9 154.8 102.8 154.6 99.9 153.9C 99 153.7 97.9 153.4 98 152.5C 98.7 142.3 93.2 132.5 89.2 123C 89.1 123 88.9 123.1 88.8 123C 85.3 132.7 83.3 142.8 80.1 152.5C 79.8 153.3 79 153.9 78.2 153.9C 75.2 153.8 72.3 153.6 69.3 153.9M 191 172C 185.6 174 179.7 171.2 174.7 169.2C 169.8 167.1 163.9 165.9 161.1 161.5C 158.7 157.9 155 155.5 152.2 152.3C 148.8 148.4 148.3 142.6 145.1 138.2C 142.4 134.4 143.9 128.9 143 124C 141.4 115.8 143.8 106.8 148.9 101C 153.9 95.1 157.2 87.3 164.2 84.2C 172.6 80.4 181.3 77.9 191 76C 198.8 74.4 206.1 79.1 213.2 81.4C 221.3 84.1 227.2 91.4 231.8 98.7C 236.4 106 239.4 114.7 239 124C 238.7 130.7 237.7 137.1 235.2 142.8C 232.6 148.6 228.2 153.2 224.6 158.3C 221 163.4 214.7 165.7 209.1 168.5C 203.7 171.2 197.4 172.5 191 172M 69.3 153.9C 68.4 153.9 67.7 153.3 67.4 152.5C 65.4 147.5 65.3 141.9 62.9 137.1C 60.6 132.3 60 126.8 58.4 121.7C 56.8 116.3 56.7 110.3 53.7 105.6C 53 104.4 54.4 102.6 55.7 103C 58.6 104.1 61.9 103 65 103C 65.9 103 67 103.6 67 104.6C 66.1 115.4 68.8 126.9 74.3 136.4C 74.4 136.4 74.6 136.4 74.7 136.4C 77.1 125.6 82.8 115.5 83.1 104.5C 83.1 103.6 84.1 103.2 85 103C 87.6 102.3 90.4 103.3 93 103C 93.9 102.9 95.1 103.6 95 104.5C 94.3 109.6 97.9 114.4 98.9 119.5C 100 125.2 102.6 130.7 103.3 136.4C 103.5 136.4 103.6 136.4 103.8 136.4C 103.9 131.4 105.8 126.7 107.1 121.8C 108.7 116.1 107.8 109.4 111.1 104.6C 111.6 103.8 112.2 103.3 113.1 103C 115.9 101.8 119.3 102.5 122.4 103C 123.7 103.2 124.6 104.3 124.3 105.6C 123.2 111.1 122 116.8 119.5 122C 117.3 126.7 116.7 132.2 115.1 137.2C 113.5 142.3 111.6 147.3 110.7 152.5C 110.5 153.3 109.6 153.9 108.7 153.9C 105.8 153.9 102.7 153 99.9 153.9C 99 154.2 98 153.4 98 152.5C 97.1 142.3 91.8 133 89.2 123C 89.1 123 88.9 123.1 88.8 123C 86.9 128.1 86 133.5 84.2 138.6C 82.6 143.1 81.7 147.9 80.1 152.5C 79.8 153.3 79 153.8 78.2 153.9C 75.2 154.1 72.3 154 69.3 153.9"></path></g></g></g><g id="g-root-cp_3_g-3_146qaof1unob2e-stroke" data-item-order="-439174" transform="translate(266, 385)"><g id="cp_3_g-3_146qaof1unob2e-stroke" fill="none" stroke-linecap="round" stroke-linejoin="round" stroke-miterlimit="4" stroke="#f4f4f4" stroke-width="4" stroke-opacity="1"><g><path d="M 10 124L 10 191L 76 191C 76 164.4903 97.4903 143 124 143C 150.5097 143 172 164.4903 172 191L 238 191L 238 124L 124 10L 10 124ZM 10 124C 11.5 146.3 8 168.8 10 191C 20.3 191 30.5 190.7 40.8 191C 52.5 191.4 64.3 191.7 76 191C 74.5 178.9 80.5 167.7 88 159.3C 96.8 149.3 109.7 141.8 124 143C 150.4 145.2 170.7 164.5 172 191C 182.1 191 192.2 189.4 202.2 191C 214 192.9 226.1 190.6 238 191C 239.1 180.6 238 170.2 238 159.8C 238 147.9 239.1 135.9 238 124C 219.2 104.7 199.4 86.4 180.9 66.9C 162.4 47.5 142.9 29 124 10C 106.4 27.6 89.2 45.5 71.3 62.7C 50.4 82.7 31.3 104.5 10 124M 10 124C 9.8 128.1 10 132.3 10 136.4C 10 140.6 8.7 145.1 10 149.1C 11.5 153.7 9.5 158.8 10 163.6C 10.5 168.4 10.4 173.3 10 178.1C 9.6 182.4 11.5 187 10 191C 15.2 192.1 20.6 190.1 25.8 191C 30.9 191.9 36.3 191.5 41.5 191C 46.9 190.5 52.4 190 57.8 191C 63.7 192.2 70.2 192.7 76 191C 74.3 181.6 79 172.6 83.6 165C 87.8 158.1 93.2 150.1 101.2 148.7C 108.8 147.4 115.8 144 124 143C 130.9 142.1 137.3 145.3 143.6 147.2C 149.5 149 155.2 152.5 158.5 157.6C 161.9 163 167.3 167.4 168.8 173.7C 170.1 179.3 171.4 184.9 172 191C 177.1 189.3 183 192.7 188.1 191C 193.3 189.2 199.2 191.9 204.7 191C 210.6 190.1 217 193.2 222.6 191C 227.3 189.1 233.1 189.6 238 191C 237.7 184.1 235.8 176.8 238 170.2C 240.3 163.5 235.5 155.7 238 149.1C 240.9 141.3 237.5 132.3 238 124C 231.9 121.4 229.7 113.1 223.9 109.9C 218.1 106.7 213.5 101.3 209.8 95.8C 205.8 89.8 200.8 84.1 194.6 80.6C 188.3 77 184.5 70.1 179.2 65.2C 174.6 60.9 171 55.5 165.9 51.9C 160.9 48.4 155.7 44.2 152.8 38.8C 149.7 33 143.7 29.3 138.9 24.9C 133.7 20.2 129.4 14.4 124 10C 122.1 14.5 116.5 16.5 113.6 20.4C 110.5 24.6 106 27.6 102.5 31.5C 99.4 35 96.8 39.5 92.5 41.5C 87.8 43.7 85.5 49.2 81.5 52.5C 78 55.5 75.6 59.6 71.8 62.2C 67.9 64.9 65.9 69.8 61.8 72.2C 57.3 74.8 53 78.6 50.8 83.2C 48.8 87.2 45.2 90.4 41.4 92.6C 36.8 95.3 34.2 100.3 30.3 103.7C 26.8 106.7 23.8 110.2 20.5 113.5C 17 117 14.1 121.2 10 124"></path></g></g><g id="cp_3_g-3_146qaof1unob2e-stroke" fill="none" stroke-linecap="round" stroke-linejoin="round" stroke-miterlimit="4" stroke="#f4f4f4" stroke-width="4" stroke-opacity="1"><g><path d="M 172 191C 172 217.5097 150.5097 239 124 239C 97.4903 239 76 217.5097 76 191C 76 164.4903 97.4903 143 124 143C 150.5097 143 172 164.4903 172 191ZM 148.5973 85.1506C 148.5973 90.7519 147.5201 95.4998 145.3658 99.3942C 143.2114 103.2886 140.2947 106.2467 136.6158 108.2685C 132.9534 110.2902 128.8435 111.3011 124.2862 111.3011C 119.7124 111.3011 115.5942 110.282 111.9318 108.2436C 108.2694 106.2053 105.361 103.2472 103.2067 99.3693C 101.0689 95.4749 100 90.7353 100 85.1506C 100 79.5492 101.0689 74.8014 103.2067 70.907C 105.361 67.0125 108.2694 64.0544 111.9318 62.0327C 115.5942 60.0109 119.7124 59 124.2862 59C 128.8435 59 132.9534 60.0109 136.6158 62.0327C 140.2947 64.0544 143.2114 67.0125 145.3658 70.907C 147.5201 74.8014 148.5973 79.5492 148.5973 85.1506ZM 136.0192 85.1506C 136.0192 81.8362 135.5469 79.0355 134.6023 76.7486C 133.6742 74.4616 132.3319 72.7299 130.5753 71.5533C 128.8352 70.3767 126.7389 69.7883 124.2862 69.7883C 121.8501 69.7883 119.7538 70.3767 117.9972 71.5533C 116.2405 72.7299 114.8899 74.4616 113.9453 76.7486C 113.0173 79.0355 112.5533 81.8362 112.5533 85.1506C 112.5533 88.465 113.0173 91.2656 113.9453 93.5526C 114.8899 95.8395 116.2405 97.5713 117.9972 98.7479C 119.7538 99.9245 121.8501 100.5128 124.2862 100.5128C 126.7389 100.5128 128.8352 99.9245 130.5753 98.7479C 132.3319 97.5713 133.6742 95.8395 134.6023 93.5526C 135.5469 91.2656 136.0192 88.465 136.0192 85.1506ZM 172 191C 173.7 217.4 150.4 237 124 239C 111.7 239.9 100.1 234.6 91.8 226.6C 82.4 217.5 76 205.1 76 191C 76 178.9 81 168.2 88 159.3C 96.1 148.8 109.6 143 124 143C 150.5 143.1 170.5 164.5 172 191M 148.6 85.2C 149.9 90.6 147.8 95.7 145.4 99.4C 142.9 103.1 140.8 107.7 136.6 108.3C 132.5 108.8 128.8 111.3 124.3 111.3C 119.7 111.3 115.4 110.6 111.9 108.2C 108.5 105.9 105.4 103.3 103.2 99.4C 100.2 96.1 98.9 90.6 100 85.2C 101.1 79.7 100.5 74.4 103.2 70.9C 105.9 67.4 108.1 63.7 111.9 62C 115.8 60.3 119.7 58.9 124.3 59C 128.8 59.1 133.2 59.6 136.6 62C 140 64.5 143.2 67 145.4 70.9C 147.5 74.8 149 79.6 148.6 85.2M 136 85.2C 135.6 81.9 135 79.2 134.6 76.7C 134.2 74.3 132.6 72.3 130.6 71.6C 128.6 70.8 126.7 69.9 124.3 69.8C 121.9 69.7 119.8 70.4 118 71.6C 116.2 72.7 114.8 74.4 113.9 76.7C 113.1 79.1 112.7 81.8 112.6 85.2C 112.4 88.5 113.6 91.1 113.9 93.6C 114.3 96 116.6 97.1 118 98.7C 119.4 100.4 121.9 100.3 124.3 100.5C 126.7 100.7 128.7 99.7 130.6 98.7C 132.5 97.8 133.7 95.8 134.6 93.6C 135.5 91.3 135.9 88.5 136 85.2M 172 191C 171.8 195.1 171.5 199.1 170.5 202.9C 169.6 206.7 167 210 166.2 213.8C 165.4 218.2 161.1 221 158.4 224.4C 155.7 227.9 152 230.7 148 232.6C 144.5 234.2 141.2 237.5 137.2 237.2C 132.9 236.8 128.5 239.8 124 239C 117.9 238 111.3 238.9 106.4 235.7C 101.4 232.4 96.1 229.8 91.4 226.2C 86 222.1 81.1 216.3 79.7 209.5C 78.4 203.4 77.8 197.3 76 191C 73.5 182.3 78.7 173.6 82.9 166.2C 86.8 159.2 93.7 154.8 99.8 149.6C 106 144.2 115.6 140.2 124 143C 132.4 145.8 140.7 146.3 148.3 149.6C 156.3 153.1 161.1 161 166.2 168.1C 170.7 174.4 173.7 182.9 172 191M 148.6 85.2C 149.1 90.7 148.1 95.8 145.4 99.4C 142.7 102.9 139.4 105.2 136.6 108.3C 133.8 111.4 128.6 109.9 124.3 111.3C 119.9 112.7 115.9 109.7 111.9 108.2C 108 106.8 106.7 102.2 103.2 99.4C 102.4 95 98.4 90.5 100 85.2C 101.6 79.8 101.3 74.9 103.2 70.9C 105.2 66.9 107.8 62.6 111.9 62C 116.1 61.4 119.7 58.7 124.3 59C 128.8 59.3 132.5 61.1 136.6 62C 140.7 62.9 141.9 68.1 145.4 70.9C 148.8 73.7 149.7 79.7 148.6 85.2M 136 85.2C 135.9 81.8 136.1 78.7 134.6 76.7C 133.1 74.8 132.5 72.4 130.6 71.6C 128.7 70.7 126.6 70.5 124.3 69.8C 122 69.1 119.7 70.3 118 71.6C 116.3 72.8 114.7 74.4 113.9 76.7C 113.2 79.1 112.1 81.9 112.6 85.2C 113 88.4 112.2 91.8 113.9 93.6C 115.7 95.3 116.2 97.7 118 98.7C 119.8 99.8 122 99.7 124.3 100.5C 126.6 101.3 128.7 99.8 130.6 98.7C 132.4 97.7 133.3 95.6 134.6 93.6C 135.9 91.5 135.2 88.3 136 85.2"></path></g></g></g><g id="g-root-cp_4_g-4_vbprin1uno8pb-stroke" data-item-order="-439166" transform="translate(134, 254)"><g id="cp_4_g-4_vbprin1uno8pb-stroke" fill="none" stroke-linecap="round" stroke-linejoin="round" stroke-miterlimit="4" stroke="#f4f4f4" stroke-width="4" stroke-opacity="1"><g><path d="M 125 10L 58 10L 58 76C 84.5097 76 106 97.4903 106 124C 106 150.5097 84.5097 172 58 172L 58 238L 125 238L 239 124L 125 10ZM 125 10C 102.7 8.4 80.3 8.5 58 10C 58 21.9 59.7 33.9 58 45.7C 56.6 55.7 58.3 65.9 58 76C 84.5 75.9 104.1 97.6 106 124C 107.9 150.4 84.5 173.1 58 172C 56.8 194 58.5 216 58 238C 80.3 239.2 102.7 239.1 125 238C 138.2 223.8 152.5 210.6 166.1 196.9C 178.4 184.5 189.9 171.4 203 160C 215.8 148.8 226.5 135.4 239 124C 227.8 112.3 217 100.1 204.7 89.7C 189.2 76.6 176 61.1 161.7 46.7C 149.5 34.4 137.3 22.1 125 10M 125 10C 117.3 11.9 108.9 11.3 101.1 10C 93.8 8.8 86 7.6 79.1 10C 72.5 12.3 65 9.1 58 10C 57 15.8 57.8 21.8 58 27.7C 58.1 33 59.9 38.6 58 43.5C 56.1 48.3 59.5 54.2 58 59.2C 56.4 64.5 58.2 70.4 58 76C 62 76.3 65.9 76.9 69.7 77.4C 73.9 78.1 77.3 80.8 81.3 82C 85.2 83.3 88.1 86.6 91.2 89.3C 94.6 92.4 96.7 96.5 99.6 100C 102.4 103.5 104.8 107.9 104.6 112.5C 104.5 116.3 106.2 120 106 124C 105.6 133.2 101.6 141 98.9 149.2C 96.2 157 89.1 163.8 81.2 166C 73.6 168.2 66.4 172.1 58 172C 56.1 177.3 58.6 183.2 58 188.8C 57.5 193.9 59.4 199.4 58 204.3C 56.5 209.7 59.7 215.7 58 220.9C 56.3 226.3 57.7 232.3 58 238C 63.8 237.6 69.7 238.1 75.5 238C 81 237.9 86.7 239.3 92 238C 97.2 236.7 102.7 237.9 108.1 238C 113.7 238.1 119.7 239.9 125 238C 128.4 234.6 131.4 230.6 135.3 227.7C 139.1 224.9 141.6 220.4 145.4 217.6C 149.1 214.9 151.5 210.8 155 208C 159.1 204.8 163.5 201.6 166 197C 168.4 192.5 173.2 189.9 176.7 186.3C 179.9 183.1 184.5 180.8 186.3 176.7C 188.4 172.1 193.9 170 196.9 166.1C 200 162.1 204.4 159.2 207.6 155.4C 210.5 151.9 215.5 149.9 217.3 145.7C 219.3 141 224 137.7 228.3 134.7C 232.4 131.8 235.9 128 239 124C 235.6 116.6 227.4 112.7 221.8 106.8C 215.1 99.7 206.4 94.2 201 86C 196.3 78.8 189.8 72.8 182.9 67.9C 174.9 62.2 167.9 54.9 162.1 47.1C 156.5 39.6 147.1 35.2 142.2 27.2C 138 20.3 131.7 14.6 125 10"></path></g></g><g id="cp_4_g-4_vbprin1uno8pb-stroke" fill="none" stroke-linecap="round" stroke-linejoin="round" stroke-miterlimit="4" stroke="#f4f4f4" stroke-width="4" stroke-opacity="1"><g><path d="M 58 172C 31.4903 172 10 150.5097 10 124C 10 97.4903 31.4903 76 58 76C 84.5097 76 106 97.4903 106 124C 106 150.5097 84.5097 172 58 172ZM 147 112.9929L 147 105C 147 103.8954 147.8954 103 149 103L 188.0291 103C 189.1337 103 190.0291 103.8954 190.0291 105L 190.0291 110.9929C 190.0291 112.0975 189.1337 112.9929 188.0291 112.9929L 174.5923 112.9929L 174.5923 151.9091C 174.5923 153.0137 173.6969 153.9091 172.5923 153.9091L 164.4617 153.9091C 163.3571 153.9091 162.4617 153.0137 162.4617 151.9091L 162.4617 112.9929L 147 112.9929ZM 58 172C 31.5 170.4 11.5 150.5 10 124C 9.2 109.7 15.3 95.5 26.2 88C 35.6 81.7 45.8 76 58 76C 84.5 76.1 106.3 97.5 106 124C 105.8 150.5 84.4 170.1 58 172M 147 113C 147.9 110.5 147.1 107.7 147 105C 147 103.9 147.9 102.9 149 103C 161.9 104.4 175.1 101.8 188 103C 189.1 103.1 190 103.9 190 105C 190.1 107 190.2 109 190 111C 189.9 112.1 189.1 113 188 113C 183.6 113 179 112.2 174.6 113C 173.8 125.9 175.8 139 174.6 151.9C 174.5 153 173.6 153.6 172.6 153.9C 170 154.7 167.1 154.3 164.5 153.9C 163.4 153.8 162.4 153 162.5 151.9C 163.1 139 162.6 126 162.5 113C 157.6 111.4 152.1 113.4 147 113M 58 172C 51.1 173.7 43.6 171.4 38.1 167.7C 33 164.2 28.6 159.8 23.2 157C 18.3 154.6 16.9 148.2 14.1 143.4C 10.7 137.9 10.2 130.9 10 124C 9.8 115.3 11.2 106.4 16.3 100.2C 21.4 94 25.1 85.4 32.8 83.1C 41 80.7 49.1 73.4 58 76C 61.9 77.1 66 76.4 69.7 77.4C 73.8 78.6 77.5 80.4 81.3 82C 85.1 83.7 88.4 86.3 91.2 89.3C 94.3 92.7 96.6 96.6 99.6 100C 102.5 103.4 103.4 108.1 104.6 112.5C 105.7 116.2 105.4 120.1 106 124C 107.4 133.1 105.3 143.4 98.9 149.2C 92.7 154.7 88.6 162.4 81.2 166C 74.1 169.5 66.2 170.1 58 172M 147 113C 147 110.3 146.4 107.6 147 105C 147.2 103.9 147.9 102.9 149 103C 155.1 103.7 161.5 101 167.3 103C 173.8 105.3 181.4 101.1 188 103C 189.1 103.3 190.4 103.9 190 105C 189.4 106.9 189.9 109 190 111C 190.1 112.1 189.1 113 188 113C 183.6 113 179.1 112.7 174.6 113C 174.5 119.3 173.1 125.9 174.6 132.1C 176.2 138.5 172.4 145.7 174.6 151.9C 175 152.9 173.7 154.1 172.6 153.9C 169.9 153.5 167.2 153.9 164.5 153.9C 163.4 153.9 162.3 153 162.5 151.9C 163.1 147.6 161.9 143.2 162.5 138.9C 163 134.5 163.7 129.9 162.5 125.7C 161.2 121.6 162.5 117.2 162.5 113C 157.4 113.7 151.8 111.2 147 113"></path></g></g></g><g id="g-root-tx_anveshak_qvw9e71uno9hk-stroke" data-item-order="0" transform="translate(152, 38)"></g><g id="g-root-tx_risingcy_hs530v1unpnv3-stroke" data-item-order="0" transform="translate(68, 122)"></g><g id="g-root-tx_securere_958pzj1uno8ox-stroke" data-item-order="0" transform="translate(530, 122)"></g><g id="g-root-ic_lock_1ums3gv1unpnnl-stroke" data-item-order="0" transform="translate(356, 146)"><g id="ic_lock_1ums3gv1unpnnl-stroke" fill="none" stroke-linecap="round" stroke-linejoin="round" stroke-miterlimit="4" stroke="#f4f4f4" stroke-width="2" stroke-opacity="1"><g><path d="M 35.526001 45.495998L 15.378 45.495998C 13.069907 45.493793 11.199999 43.622093 11.2 41.314003L 11.2 15.182C 11.199999 12.873906 13.069907 11.002208 15.378 11L 46.737999 11C 49.046875 11.001104 50.918003 12.873126 50.918003 15.182L 50.917999 27.854M 11.196 19.166L 50.917999 19.166M 11.196 36.515999L 35.526001 36.515999M 11.196 27.854L 50.917999 27.854M 27.42 19.166L 27.42 45.495998M 39.052002 19.166L 39.052002 33.206001M 39.672001 45.104C 39.671997 43.461506 41.003502 42.130001 42.646 42.130001L 53.830002 42.130001C 55.470932 42.132206 56.799999 43.463066 56.799999 45.104L 56.799999 54.026001C 56.799999 55.666935 55.470932 56.997791 53.829998 57L 42.646 57C 41.003502 57 39.671997 55.668495 39.671997 54.026001ZM 48.237999 33.200001L 48.237999 33.200001C 45.019161 33.266701 42.463272 35.929119 42.528 39.147999L 42.528 42.124001L 53.948002 42.124001L 53.948002 39.153999C 54.01609 35.9328 51.459229 33.266678 48.237999 33.199997ZM 48.237999 47.481998C 47.359489 47.446079 46.547329 47.94772 46.186138 48.749352C 45.824951 49.550987 45.987244 50.49168 46.596161 51.125946C 47.205082 51.760212 48.138378 51.960716 48.954067 51.6325C 49.76976 51.304287 50.304085 50.513248 50.304001 49.634003C 50.327431 48.469349 49.40263 47.506054 48.237999 47.481998L 48.237999 47.481998M 35.599998 45.400002C 28.799999 44.599998 22 46.200001 15.4 45.400002C 13 45.200001 11.8 43.599998 11.2 41.400002C 8.8 33 9 23.6 11.2 15.2C 11.8 13 13 10.6 15.4 11C 25.799999 12.6 36.799999 8 46.799999 11C 49 11.6 51.599998 13 51 15.2C 49.599998 19.200001 52.400002 23.799999 51 27.799999M 11.2 19.200001C 24.4 18.4 38 16.200001 51 19.200001M 11.2 36.599998C 19.4 36.799999 27.6 34.799999 35.599998 36.599998M 11.2 27.799999C 24.4 27.6 37.599998 28.4 51 27.799999M 27.4 19.200001C 28.6 27.799999 27.4 36.799999 27.4 45.400002M 39 19.200001C 37.400002 23.6 39.400002 28.6 39 33.200001M 39.599998 45.200001C 39.200001 43.599998 41 41.599998 42.599998 42.200001C 46.200001 43.400002 50.200001 41.799999 53.799999 42.200001C 55.400002 42.200001 57 43.400002 56.799999 45.200001C 56.599998 48 56.400002 51 56.799999 54C 57 55.599998 55.400002 57 53.799999 57C 50.200001 57 46.400002 57.200001 42.599998 57C 41 57 39.400002 55.599998 39.599998 54C 40 51 40.599998 48 39.599998 45.200001M 48.200001 33.200001C 45 33.599998 42.400002 36 42.599998 39.200001C 42.599998 40.200001 42.200001 41.200001 42.599998 42.200001C 46.200001 43.200001 50.200001 42.799999 54 42.200001C 54 41.200001 54.200001 40.200001 54 39.200001C 53.200001 36 51.400002 33.799999 48.200001 33.200001M 48.200001 47.400002C 47.400002 47.599998 46.599998 48 46.200001 48.799999C 45.799999 49.400002 45.799999 50.799999 46.599998 51.200001C 47.400002 51.599998 48.200001 52 49 51.599998C 49.799999 51.200001 50.599998 50.400002 50.400002 49.599998C 49.799999 48.599998 49.400002 47.200001 48.200001 47.400002"></path></g></g></g><g id="g-root-tx_malwarea_8wi2rz1unppfk-stroke" data-item-order="0" transform="translate(92, 182)"></g><g id="g-root-tx_blockcha_9lpqn1uno9hm-stroke" data-item-order="0" transform="translate(530, 182)"></g><g id="g-root-ic_warn_1hd76of1un7fnv-stroke" data-item-order="0" transform="translate(158, 344)"><g id="ic_warn_1hd76of1un7fnv-stroke" fill="none" stroke-linecap="round" stroke-linejoin="round" stroke-miterlimit="4" stroke="#f4f4f4" stroke-width="2" stroke-opacity="1"><g><path d="M 45.062 51C 45.338142 51 45.562 51.223858 45.562 51.5C 45.562 51.776142 45.338142 52 45.062 52C 44.785858 52 44.562 51.776142 44.562 51.5C 44.562 51.223858 44.785858 51 45.062 51M 45.062 47.007999L 45.062 41.007999M 46.737999 35.014C 46.407635 34.395348 45.763336 34.009003 45.062 34.009003C 44.360668 34.009003 43.716366 34.395348 43.386002 35.014L 33.274002 54.282001C 32.969917 54.859627 32.994263 55.555054 33.337997 56.110001C 33.68277 56.669125 34.293125 57.009132 34.950001 57.007999L 55.174 57.007999C 55.831482 57.009438 56.442574 56.669437 56.787998 56.109997C 57.130299 55.554451 57.15387 54.859463 56.849998 54.281998ZM 27.062 57L 13.062 57C 11.957431 57 11.062 56.104568 11.062 55L 11.062 13C 11.062 11.895431 11.957431 11 13.062 11L 39.648003 11C 40.180408 11.003817 40.68932 11.219762 41.062 11.6L 48.476002 19C 48.851097 19.374985 49.061886 19.88361 49.062 20.414L 49.062 27M 17.062 21.007999L 17.062 29.007999M 35.062 21.007999L 35.062 29.007999M 29.062 35.007999L 29.062 43.007999M 41.062 21.007999L 41.062 29.007999M 26.062 21C 27.718855 21 29.062 22.343147 29.062 24L 29.062 26C 29.062 27.656855 27.718855 29 26.062 29C 24.405148 29 23.062 27.656855 23.062 26L 23.062 24C 23.062 22.343147 24.405148 21 26.062 21ZM 20.062 35C 21.718855 35 23.062 36.343147 23.062 38L 23.062 40C 23.062 41.656853 21.718855 43 20.062 43C 18.405146 43 17.062 41.656853 17.062 40L 17.062 38C 17.062 36.343147 18.405146 35 20.062 35ZM 45 51C 45.400002 51 45.599998 51.200001 45.599998 51.599998C 45.599998 51.799999 45.400002 52 45 52C 44.799999 52 44.599998 51.799999 44.599998 51.599998C 44.599998 51.200001 44.799999 51 45 51M 45 47C 45 45 45.599998 43 45 41M 46.799999 35C 46.400002 34.400002 45.799999 34 45 34C 44.400002 34 43.599998 34.400002 43.400002 35C 41.599998 42 35.400002 47.400002 33.200001 54.200001C 33 55 33 55.599998 33.400002 56.200001C 33.599998 56.599998 34.400002 57.200001 35 57C 41.200001 54.599998 48.599998 55.599998 55.200001 57C 55.799999 57.200001 56.400002 56.599998 56.799999 56.200001C 57.200001 55.599998 57 55 56.799999 54.200001C 54.799999 47.400002 48.799999 42 46.799999 35M 27 57C 22.4 56.599998 17.4 58.599998 13 57C 12 56.599998 11.4 56 11 55C 6.8 41.599998 10.2 27 11 13C 11.2 11.8 12 10.8 13 11C 21.799999 12.2 30.799999 11.2 39.599998 11C 40.200001 11 40.599998 11.4 41 11.6C 44 13.4 46.200001 16.4 48.400002 19C 48.799999 19.4 49.200001 19.799999 49 20.4C 48.799999 22.6 48.400002 25 49 27M 17 21C 17.6 23.6 17.799999 26.4 17 29M 35 21C 36 23.6 34.400002 26.4 35 29M 29 35C 29.200001 37.599998 29.200001 40.400002 29 43M 41 21C 41.400002 23.6 41.799999 26.4 41 29M 26 21C 27.6 20.6 29.6 22.4 29 24C 28.799999 24.6 29 25.4 29 26C 29 27.6 27.799999 29 26 29C 24.4 29 22.799999 27.6 23 26C 23.200001 25.4 23.200001 24.6 23 24C 22.799999 22.4 24.6 21.6 26 21M 20 35C 21.6 34.799999 23.6 36.400002 23 38C 22.799999 38.599998 23 39.400002 23 40C 23 41.599998 21.799999 43 20 43C 18.4 43 16.799999 41.599998 17 40C 17.200001 39.400002 17.200001 38.599998 17 38C 16.6 36.400002 18.6 34.400002 20 35"></path></g></g></g><g id="g-root-ic_cog_4kfibz1unh8n4-stroke" data-item-order="0" transform="translate(554, 344)"><g id="ic_cog_4kfibz1unh8n4-stroke" fill="none" stroke-linecap="round" stroke-linejoin="round" stroke-miterlimit="4" stroke="#f4f4f4" stroke-width="2" stroke-opacity="1"><g><path d="M 37 56.450001C 35.200001 51.25 30.200001 47.450001 24.400101 47.450001C 18.6001 47.450001 13.4001 51.25 11.600098 56.450001M 24.20014 29.449961L 24.20014 23.449959M 13.19996 35.25L 35.200001 35.25M 15.99996 37.450001C 16.199961 41.849998 19.79994 45.450001 24.19994 45.450001C 28.79994 45.450001 32.400002 41.849998 32.400002 37.25L 32.400002 33.650002C 32.400002 29.049959 28.79994 25.449959 24.19994 25.449959C 19.79994 25.449959 16.199961 29.049959 15.99996 33.450001L 15.99996 37.450001ZM 10 10M 48.4002 13.24998L 49.200199 15.649981C 49.4002 16.44998 50.4002 17.04998 51.200199 16.849979L 53.600201 16.249981C 55.800201 15.849979 57.200199 18.249981 55.800201 19.849979L 54.000198 21.649979C 53.4002 22.249981 53.4002 23.249981 54.000198 23.849979L 55.800201 25.649979C 57.200199 27.249981 55.800201 29.849979 53.600201 29.249981L 51.200199 29.04998C 50.4002 28.849979 49.4002 29.249981 49.200199 30.25L 48.4002 32.650002C 47.800201 34.849998 44.800201 34.849998 44.200199 32.650002L 43.4002 30.25C 43.200199 29.44998 42.200199 28.849979 41.4002 29.04998L 39.000198 29.649981C 36.800201 30.049999 35.4002 27.649981 36.800201 26.04998L 38.600201 24.249981C 39.200199 23.649979 39.200199 22.649979 38.600201 22.04998L 37.000198 19.849979C 35.600201 18.249981 37.000198 15.649981 39.200199 16.249981L 41.600201 16.849979C 42.4002 17.04998 43.4002 16.649981 43.600201 15.649981L 44.4002 13.24998C 44.800201 11.049976 47.800201 11.049976 48.4002 13.24998ZM 43.299999 22.950001C 43.299999 24.606853 44.643147 25.950001 46.299999 25.950001C 47.956856 25.950001 49.299999 24.606853 49.299999 22.950001C 49.299999 21.293146 47.956856 19.950001 46.299999 19.950001C 44.643147 19.950001 43.299999 21.293146 43.299999 22.950001M 37 56.400002C 34 51.799999 30 49 24.4 47.400002C 18.799999 46 12.2 51 11.6 56.400002M 24.200001 29.4C 24.4 27.4 23.6 25.4 24.200001 23.4M 13.2 35.200001C 20.200001 33 28 33.799999 35.200001 35.200001M 16 37.400002C 17 41.799999 19.799999 44.400002 24.200001 45.400002C 28.6 46.400002 33.799999 41.599998 32.400002 37.200001C 32 36.200001 32.799999 34.799999 32.400002 33.599998C 30.6 29.4 28.799999 26.4 24.200001 25.4C 19.799999 24.6 17.4 29.200001 16 33.400002C 16 34.799999 16.4 36.200001 16 37.400002M 10 10M 48.400002 13.2C 49 14 48.799999 15 49.200001 15.6C 49.599998 16.4 50.400002 17.200001 51.200001 16.799999C 52 16.6 52.799999 16.200001 53.599998 16.200001C 55.799999 15.6 57.200001 18.4 55.799999 19.799999C 55.200001 20.4 54.799999 21.4 54 21.6C 53.200001 22 53.200001 23.6 54 23.799999C 54.799999 24.200001 55.400002 25 55.799999 25.6C 57.200001 27.200001 55.799999 30.200001 53.599998 29.200001C 52.799999 29.200001 52 29.4 51.200001 29C 50.400002 29.200001 49.200001 29.200001 49.200001 30.200001C 48.599998 30.799999 48.400002 31.799999 48.400002 32.599998C 47.400002 34.799999 44.599998 34.799999 44.200001 32.599998C 44.200001 31.799999 43.799999 31 43.400002 30.200001C 43.400002 29.4 42.200001 28.799999 41.400002 29C 40.599998 29.200001 39.799999 29.6 39 29.6C 36.799999 29.4 36 28 36.799999 26C 37.599998 25.6 38.200001 25 38.599998 24.200001C 39 23.6 39.200001 22.6 38.599998 22C 37.799999 21.6 37.599998 20.6 37 19.799999C 35.599998 18.200001 37 16 39.200001 16.200001C 40 16.4 40.799999 16.4 41.599998 16.799999C 42.400002 17.200001 43.599998 16.6 43.599998 15.6C 43.599998 14.8 44.200001 14 44.400002 13.2C 44.400002 11 47.599998 11 48.400002 13.2M 43.400002 23C 43.799999 24.6 44.599998 25.6 46.400002 26C 48 26.200001 49.799999 24.6 49.400002 23C 48.799999 21.4 48 20.200001 46.400002 20C 44.599998 19.6 43.200001 21.4 43.400002 23"></path></g></g></g><g id="g-root-tx_aipowere_18efmof1unpnv1-stroke" data-item-order="0" transform="translate(50, 518)"></g><g id="g-root-tx_dependen_1lz99cf1unoavf-stroke" data-item-order="0" transform="translate(542, 518)"></g><g id="g-root-ic_sear_qp14lr1unlfd0-stroke" data-item-order="0" transform="translate(356, 542)"><g id="ic_sear_qp14lr1unlfd0-stroke" fill="none" stroke-linecap="round" stroke-linejoin="round" stroke-miterlimit="4" stroke="#f4f4f4" stroke-width="2" stroke-opacity="1"><g><path d="M 22 30.058001C 22 35.060593 26.055405 39.115997 31.057999 39.115997C 36.060593 39.115997 40.115997 35.060593 40.115997 30.057999C 40.115997 25.055405 36.060593 21 31.057999 21C 26.055405 21 22 25.055405 22 30.057999ZM 44 43L 37.464001 36.464001M 13 17.549999L 13 32.823997C 13.120375 43.162281 19.686607 52.324169 29.438 55.759998L 31.68 56.588001C 33.177765 57.138031 34.822235 57.138031 36.32 56.587997L 38.562 55.759998C 48.313393 52.324169 54.879623 43.162281 54.999996 32.823997L 55 17.549999C 54.995892 16.323391 54.261108 15.217278 53.132 14.738C 47.073589 12.209308 40.564659 10.937597 34 11C 27.435341 10.937597 20.926413 12.209308 14.868 14.738C 13.738894 15.217278 13.004107 16.323391 13 17.549999ZM 22 30C 21.6 35 26 38.599998 31 39.200001C 36 39.599998 41.400002 34.799999 40.200001 30C 38.799999 25.200001 36 21 31 21C 26 21 22.4 25 22 30M 44 43C 41.200001 41.799999 39 39.200001 37.400002 36.400002M 13 17.6C 12.2 22.6 11.6 28 13 32.799999C 14.6 43 20.799999 50.200001 29.4 55.799999C 30.200001 56.200001 31 56.400002 31.6 56.599998C 33.200001 57 34.799999 57.200001 36.400002 56.599998C 37 56.200001 37.799999 56 38.599998 55.799999C 48.799999 54 52.200001 42.799999 55 32.799999C 55.799999 27.799999 53 22.200001 55 17.6C 55.400002 16.4 54.200001 15.4 53.200001 14.8C 47.599998 11.2 40.599998 11.6 34 11C 27.6 9.4 21.4 14.4 14.8 14.8C 13.6 14.8 13.2 16.4 13 17.6"></path></g></g></g><g id="g-root-tx_cloudnat_v2z4b31unppfy-stroke" data-item-order="0" transform="translate(38, 578)"></g><g id="g-root-tx_limitedr_1ha2mxb1unpn2c-stroke" data-item-order="0" transform="translate(542, 578)"></g></g></g><path id="w1uo20en1vrmmti" d="M65.283 12.757a.35.35 0 0 0 .584.157l5.203-5.141-6.183 3.523.396 1.461zm-2.216-11.7a.35.35 0 0 0-.522.305v3.111l3.276-1.868-2.754-1.548zm3.728 2.105l-4.25 2.421v2.445l6.391-3.644-2.141-1.222zm4.708 3.303a.35.35 0 0 0 0-.609l-1.592-.9-7.365 4.199v1.782a.35.35 0 0 0 .523.305l8.435-4.777z M44.542 2.513c0-.433.355-.783.792-.783s.792.35.792.783-.355.783-.792.783-.792-.35-.792-.783zm59.171 0c0-.433.355-.783.792-.783s.792.35.792.783-.355.783-.792.783-.792-.35-.792-.783zm-85.951 7.636h-1.27v-.487c-.276.201-.864.609-1.881.609-1.202 0-2.274-.794-2.137-2.078.118-1.106 1.153-1.584 1.848-1.727l2.17-.345c0-.539-.29-.956-1.064-1.006s-1.21.305-1.571 1.017l-1.124-.605c1.218-2.631 5.029-1.764 5.029.414v4.207zm-1.27-2.86c.006.396-.062 1.112-.819 1.59-.587.37-1.841.299-1.903-.395-.049-.555.461-.791.906-.898l1.816-.297zm72.662 2.86h-1.27v-.487c-.276.201-.864.609-1.881.609-1.202 0-2.274-.794-2.137-2.078.118-1.106 1.153-1.584 1.848-1.727l2.17-.345c0-.539-.29-.956-1.064-1.006s-1.21.305-1.571 1.017l-1.124-.605c1.218-2.631 5.029-1.764 5.029.414v4.207zm-1.27-2.86c.006.396-.062 1.112-.82 1.59-.587.37-1.841.299-1.903-.395-.049-.555.461-.791.906-.898l1.816-.297zM99.096 10.149H97.85v-8.45h1.246v4.895l2.68-2.559h1.738l-2.633 2.535 2.715 3.578h-1.556l-2.077-2.707-.867.844v1.863zm6.053-6.114h-1.255v6.113h1.255V4.035zm-59.2 0h-1.255v6.113h1.255V4.035zm5.584 6.113V1.697h1.255v2.695c.361-.346 1-.485 1.47-.485 1.452 0 2.477 1.082 2.457 2.448v3.792h-1.27v-3.68c0-.408-.214-1.339-1.315-1.339-.968 0-1.342.756-1.342 1.339v3.681h-1.255zm-4.76-4.894V4.039h.621a.45.45 0 0 0 .45-.45v-.855h1.251v1.305h1.309v1.215h-1.309v3.109c0 .293.105.664.648.664.365 0 .531-.035.736-.07v1.137s-.361.113-.857.113c-1.398 0-1.777-1.051-1.777-1.788V5.254h-1.071zM36.528 4.039h-1.394l2.191 6.106h1.125l1.234-3.918 1.238 3.918h1.129l2.188-6.106h-1.383l-1.359 3.93-1.256-3.93h-1.124l-1.242 3.957-1.348-3.957zM26.212 7.141c-.02 1.566 1.187 3.129 3.223 3.129 1.566 0 2.383-.918 2.734-1.719L31.172 8c-.315.399-.801 1.094-1.738 1.094-1.145 0-1.825-.781-1.891-1.52h4.625c.074-.284.148-.995-.03-1.559-.336-1.064-1.221-2.102-2.839-2.102s-3.088 1.152-3.088 3.227zm1.363-.75h3.348c-.055-.43-.566-1.301-1.623-1.301a1.79 1.79 0 0 0-1.725 1.301zm-8.758.75c.038 1.758 1.277 3.133 3.145 3.133 1.074 0 1.723-.477 1.961-.672v.547h1.242V1.703h-1.258v2.888c-.414-.36-1.062-.68-1.93-.68-1.91 0-3.198 1.473-3.16 3.23zm1.309-.08c0 1.119.723 1.978 1.836 1.978a1.88 1.88 0 0 0 1.94-1.904c0-1.371-1.011-1.99-1.972-1.99s-1.805.798-1.805 1.916zm76.683-.028C96.771 5.275 95.532 3.9 93.664 3.9c-1.074 0-1.723.477-1.961.672v-.547h-1.242v8.22h1.258V9.583c.414.36 1.063.68 1.93.68 1.91 0 3.198-1.473 3.16-3.23zm-1.309.08c0-1.119-.723-1.978-1.836-1.978a1.88 1.88 0 0 0-1.94 1.904c0 1.371 1.011 1.99 1.972 1.99S95.5 8.231 95.5 7.113zM106.441 10.173V4.036h1.254v.382c.361-.346 1-.485 1.47-.485 1.452 0 2.477 1.082 2.457 2.448v3.792h-1.27V6.492c0-.408-.214-1.339-1.315-1.339-.969 0-1.342.756-1.342 1.339v3.681h-1.254zm-30.383-.021V1.824h1.084l4.215 5.777V1.824h1.32v8.328h-1.094l-4.207-5.796v5.796h-1.319zM5.24 10.149H4V2.377h1.014l2.664 3.597 2.654-3.592h1.03v7.766h-1.256V4.762L7.678 8.068 5.24 4.742v5.407z" transform="translate(20, 662)" fill="#ababab88" stroke="none"></path></svg>